<?xml version="1.0" standalone="no"?>
<!DOCTYPE svg PUBLIC "-//W3C//DTD SVG 20010904//EN"
 "http://www.w3.org/TR/2001/REC-SVG-20010904/DTD/svg10.dtd">
<svg version="1.0" xmlns="http://www.w3.org/2000/svg"
 width="736.000000pt" height="736.000000pt" viewBox="0 0 736.000000 736.000000"
 preserveAspectRatio="xMidYMid meet">
<metadata>
Created by potrace 1.14, written by Peter Selinger 2001-2017
</metadata>
<g transform="translate(0.000000,736.000000) scale(0.100000,-0.100000)"
fill="#000000" stroke="none">
<path d="M3125 5771 c-47 -12 -72 -28 -101 -67 -56 -73 -38 -191 37 -245 33
-23 110 -36 153 -25 40 10 93 63 112 111 47 125 -71 258 -201 226z"/>
<path d="M3652 5727 c-27 -28 -28 -71 -4 -95 15 -15 41 -20 144 -25 300 -15
554 -83 818 -218 74 -38 147 -69 161 -69 59 0 82 77 37 120 -39 37 -289 155
-422 199 -206 68 -449 111 -634 111 -69 0 -81 -3 -100 -23z"/>
<path d="M2553 5391 c-266 -178 -527 -467 -666 -738 -35 -70 -40 -85 -32 -110
12 -32 50 -49 88 -39 20 5 37 26 71 89 143 262 343 485 591 660 112 78 135
100 135 129 0 27 -44 68 -74 68 -14 0 -64 -27 -113 -59z"/>
<path d="M5115 5206 c-70 -30 -115 -115 -101 -188 33 -174 269 -197 331 -33
55 142 -90 282 -230 221z"/>
<path d="M3495 5055 c-94 -16 -238 -57 -305 -86 -69 -30 -86 -82 -42 -131 22
-26 51 -23 165 17 137 46 254 65 407 65 153 0 270 -19 407 -65 120 -41 133
-42 161 -12 29 30 28 72 -2 102 -25 25 -158 71 -286 100 -104 23 -397 29 -505
10z"/>
<path d="M4476 4768 c-32 -45 -21 -75 47 -136 107 -98 166 -164 232 -263 106
-157 167 -310 199 -499 17 -104 35 -130 87 -130 68 0 82 55 53 198 -62 307
-235 605 -458 793 -58 49 -76 59 -107 59 -28 0 -42 -6 -53 -22z"/>
<path d="M2717 4765 c-173 -61 -148 -315 32 -333 64 -6 113 12 150 53 81 93
51 223 -64 276 -47 22 -67 23 -118 4z"/>
<path d="M5480 4672 c-29 -9 -50 -36 -50 -64 0 -16 17 -63 39 -106 124 -249
194 -572 189 -876 -2 -134 -1 -139 21 -157 30 -24 63 -24 92 0 22 18 24 27 28
142 9 315 -62 656 -197 942 -41 86 -54 106 -78 114 -16 5 -36 8 -44 5z"/>
<path d="M2437 4222 c-21 -23 -62 -141 -88 -252 -26 -111 -36 -365 -20 -481
24 -167 91 -378 131 -414 29 -26 79 -24 102 5 24 30 21 53 -25 186 -47 134
-67 253 -67 405 0 146 19 267 60 392 35 104 37 130 10 157 -26 26 -81 26 -103
2z"/>
<path d="M1690 4178 c-51 -14 -86 -43 -109 -91 -27 -55 -27 -99 0 -154 59
-122 242 -125 306 -4 28 53 29 102 4 157 -33 73 -122 114 -201 92z"/>
<path d="M1645 3507 c-58 -33 -87 -88 -82 -160 4 -64 23 -98 77 -134 97 -66
230 -14 259 101 37 150 -120 269 -254 193z"/>
<path d="M4910 3449 c-81 -47 -111 -146 -68 -228 28 -54 60 -79 117 -92 108
-24 210 59 211 172 0 52 -39 120 -86 146 -51 29 -126 30 -174 2z"/>
<path d="M5613 3158 c-12 -6 -26 -22 -31 -37 -5 -14 -24 -66 -42 -116 -92
-258 -251 -507 -453 -710 -49 -49 -93 -97 -98 -107 -15 -28 1 -67 33 -84 45
-23 74 -6 184 109 214 223 381 493 479 777 40 115 38 147 -11 169 -29 13 -32
13 -61 -1z"/>
<path d="M4593 2905 c-129 -77 -98 -276 48 -315 124 -34 239 76 215 205 -8 40
-55 99 -97 121 -44 22 -117 18 -166 -11z"/>
<path d="M1846 2889 c-38 -30 -33 -65 25 -176 138 -267 353 -524 581 -695 118
-89 139 -100 175 -88 37 13 56 50 43 84 -5 14 -53 58 -107 99 -245 186 -423
396 -569 672 -69 130 -93 147 -148 104z"/>
<path d="M2682 2863 c-7 -3 -19 -18 -27 -34 -23 -44 -2 -81 101 -178 208 -195
473 -324 754 -366 137 -21 166 -20 195 10 31 30 32 69 2 99 -19 19 -38 24
-107 29 -281 23 -582 168 -789 381 -62 65 -87 76 -129 59z"/>
<path d="M4095 2576 c-40 -17 -82 -67 -96 -115 -38 -126 86 -250 212 -212 133
40 173 199 73 293 -52 48 -126 61 -189 34z"/>
<path d="M4574 1930 c-245 -126 -559 -200 -849 -200 -118 0 -145 -13 -145 -70
0 -17 9 -39 20 -50 18 -18 33 -20 144 -20 310 0 675 92 944 237 105 57 126 93
82 141 -32 34 -73 26 -196 -38z"/>
<path d="M3009 1907 c-56 -30 -89 -84 -89 -150 0 -58 17 -94 64 -135 119 -104
305 8 276 166 -21 116 -145 175 -251 119z"/>
</g>
</svg>
